<svg width="204" height="80" viewBox="0 0 204 80" fill="none"
    xmlns="http://www.w3.org/2000/svg">
    <circle cx="40" cy="40" r="40" fill="#FBFBFB"/>
    <g clip-path="url(#clip0_13_18159)">
        <path d="M45.5147 26.3607H32.6371C32.3436 26.3611 32.0623 26.4779 31.8548 26.6854C31.6473 26.893 31.5305 27.1744 31.5302 27.468V56.0989L31.3826 56.1439L28.2235 57.1117C28.0738 57.1573 27.9121 57.1417 27.7739 57.0682C27.6357 56.9947 27.5322 56.8694 27.4863 56.7197L18.0895 26.0145C18.0438 25.8647 18.0593 25.7029 18.1328 25.5646C18.2063 25.4264 18.3316 25.3229 18.4813 25.2771L23.3495 23.7859L37.4624 19.4645L42.3305 17.9734C42.4046 17.9505 42.4825 17.9426 42.5597 17.9499C42.6368 17.9572 42.7118 17.9797 42.7803 18.016C42.8487 18.0524 42.9094 18.1019 42.9587 18.1617C43.008 18.2215 43.0451 18.2904 43.0678 18.3646L45.4697 26.2131L45.5147 26.3607Z" fill="#EAEAEA"/>
        <path d="M48.3259 26.2144L45.431 16.7552C45.3828 16.5976 45.3041 16.451 45.1993 16.3238C45.0945 16.1967 44.9657 16.0914 44.8202 16.0141C44.6747 15.9368 44.5154 15.8889 44.3514 15.8732C44.1874 15.8574 44.0219 15.8742 43.8644 15.9225L37.0201 18.0182L22.9079 22.3403L16.0636 24.4368C15.7456 24.5345 15.4794 24.7544 15.3233 25.0482C15.1673 25.342 15.1341 25.6858 15.2311 26.004L25.1253 58.3317C25.2042 58.5886 25.3632 58.8135 25.5792 58.9733C25.7951 59.1331 26.0566 59.2195 26.3252 59.2198C26.4496 59.2198 26.5732 59.2012 26.692 59.1644L31.3837 57.7279L31.5313 57.6821V57.5278L31.3837 57.5729L26.6484 59.0234C26.3678 59.109 26.0647 59.0797 25.8056 58.942C25.5465 58.8043 25.3525 58.5695 25.2663 58.2889L15.3729 25.9604C15.3301 25.8214 15.3152 25.6754 15.329 25.5306C15.3428 25.3858 15.385 25.2452 15.4532 25.1168C15.5214 24.9883 15.6143 24.8746 15.7265 24.7821C15.8387 24.6896 15.968 24.6202 16.1071 24.5778L22.9514 22.4813L37.0636 18.1599L43.9079 16.0635C44.0134 16.0313 44.1231 16.0149 44.2334 16.0148C44.47 16.0153 44.7003 16.0916 44.8905 16.2326C45.0806 16.3735 45.2207 16.5716 45.2901 16.798L48.1717 26.2144L48.2175 26.362H48.371L48.3259 26.2144Z" fill="#A2A2A7"/>
        <path d="M24.2281 25.3012C24.0859 25.3011 23.9474 25.2554 23.833 25.1708C23.7187 25.0863 23.6344 24.9672 23.5926 24.8312L22.6421 21.7255C22.6166 21.6421 22.6077 21.5545 22.6161 21.4676C22.6244 21.3808 22.6497 21.2964 22.6907 21.2193C22.7316 21.1423 22.7873 21.0741 22.8545 21.0185C22.9218 20.963 22.9994 20.9213 23.0828 20.8958L36.0659 16.9196C36.2343 16.8682 36.4163 16.8857 36.5718 16.9683C36.7273 17.051 36.8437 17.1919 36.8954 17.3603L37.8459 20.4661C37.8972 20.6346 37.8797 20.8166 37.7971 20.9721C37.7145 21.1277 37.5736 21.2441 37.4053 21.2959L24.4221 25.2721C24.3593 25.2914 24.2939 25.3012 24.2281 25.3012Z" fill="#AFAFAF"/>
        <path d="M29.2071 19.184C30.0222 19.184 30.6829 18.523 30.6829 17.7076C30.6829 16.8922 30.0222 16.2312 29.2071 16.2312C28.392 16.2312 27.7312 16.8922 27.7312 17.7076C27.7312 18.523 28.392 19.184 29.2071 19.184Z" fill="#AFAFAF"/>
        <path d="M29.207 18.6425C29.7232 18.6425 30.1416 18.2239 30.1416 17.7076C30.1416 17.1913 29.7232 16.7727 29.207 16.7727C28.6909 16.7727 28.2725 17.1913 28.2725 17.7076C28.2725 18.2239 28.6909 18.6425 29.207 18.6425Z" fill="white"/>
        <path d="M59.5686 59.152H34.6265C34.4602 59.1518 34.3008 59.0857 34.1832 58.968C34.0656 58.8504 33.9995 58.6909 33.9993 58.5246V28.6277C33.9995 28.4614 34.0656 28.3019 34.1832 28.1842C34.3008 28.0666 34.4602 28.0004 34.6265 28.0002H59.5686C59.7349 28.0004 59.8943 28.0666 60.0119 28.1842C60.1295 28.3019 60.1957 28.4614 60.1959 28.6277V58.5246C60.1957 58.6909 60.1295 58.8504 60.0119 58.968C59.8943 59.0857 59.7349 59.1518 59.5686 59.152Z" fill="#EAEAEA"/>
        <path d="M48.1708 26.2131H32.6373C32.3047 26.2136 31.9859 26.346 31.7508 26.5812C31.5156 26.8165 31.3833 27.1354 31.3828 27.4681V57.5716L31.5304 57.5266V27.4681C31.5308 27.1745 31.6475 26.8931 31.855 26.6855C32.0625 26.4779 32.3438 26.3611 32.6373 26.3608H48.2165L48.1708 26.2131ZM61.7118 26.2131H32.6373C32.3047 26.2136 31.9859 26.346 31.7508 26.5812C31.5156 26.8165 31.3833 27.1354 31.3828 27.4681V61.2774C31.3833 61.6101 31.5156 61.929 31.7508 62.1642C31.9859 62.3995 32.3047 62.5318 32.6373 62.5323H61.7118C62.0444 62.5318 62.3632 62.3995 62.5984 62.1642C62.8335 61.929 62.9658 61.6101 62.9663 61.2774V27.4681C62.9658 27.1354 62.8335 26.8165 62.5984 26.5812C62.3632 26.346 62.0444 26.2136 61.7118 26.2131ZM62.8187 61.2774C62.8184 61.5709 62.7016 61.8524 62.4941 62.06C62.2866 62.2675 62.0053 62.3843 61.7118 62.3847H32.6373C32.3438 62.3843 32.0625 62.2675 31.855 62.06C31.6475 61.8524 31.5308 61.5709 31.5304 61.2774V27.4681C31.5308 27.1745 31.6475 26.8931 31.855 26.6855C32.0625 26.4779 32.3438 26.3611 32.6373 26.3608H61.7118C62.0053 26.3611 62.2866 26.4779 62.4941 26.6855C62.7016 26.8931 62.8184 27.1745 62.8187 27.4681V61.2774Z" fill="#A2A2A7"/>
        <path d="M53.9635 29.4611H40.3856C40.2095 29.4609 40.0407 29.3908 39.9162 29.2663C39.7917 29.1417 39.7216 28.9728 39.7214 28.7967V25.5487C39.7216 25.3725 39.7917 25.2036 39.9162 25.0791C40.0407 24.9545 40.2095 24.8845 40.3856 24.8843H53.9635C54.1396 24.8845 54.3084 24.9545 54.4329 25.0791C54.5574 25.2036 54.6275 25.3725 54.6277 25.5487V28.7967C54.6275 28.9728 54.5574 29.1417 54.4329 29.2663C54.3084 29.3908 54.1396 29.4609 53.9635 29.4611Z" fill="#AFAFAF"/>
        <path d="M47.1746 25.1059C47.9897 25.1059 48.6505 24.4449 48.6505 23.6295C48.6505 22.8141 47.9897 22.1531 47.1746 22.1531C46.3595 22.1531 45.6987 22.8141 45.6987 23.6295C45.6987 24.4449 46.3595 25.1059 47.1746 25.1059Z" fill="#AFAFAF"/>
        <path d="M47.1746 24.5285C47.671 24.5285 48.0735 24.1259 48.0735 23.6292C48.0735 23.1326 47.671 22.73 47.1746 22.73C46.6781 22.73 46.2756 23.1326 46.2756 23.6292C46.2756 24.1259 46.6781 24.5285 47.1746 24.5285Z" fill="white"/>
    </g>
    <path d="M106.287 33.625V45H104.327L99.225 36.8516V45H97.2641V33.625H99.225L104.342 41.7891V33.625H106.287ZM108.227 40.8672V40.6875C108.227 40.0781 108.315 39.513 108.492 38.9922C108.669 38.4661 108.924 38.0104 109.258 37.625C109.596 37.2344 110.008 36.9323 110.492 36.7188C110.982 36.5 111.534 36.3906 112.148 36.3906C112.768 36.3906 113.32 36.5 113.805 36.7188C114.294 36.9323 114.708 37.2344 115.047 37.625C115.385 38.0104 115.643 38.4661 115.82 38.9922C115.997 39.513 116.086 40.0781 116.086 40.6875V40.8672C116.086 41.4766 115.997 42.0417 115.82 42.5625C115.643 43.0833 115.385 43.5391 115.047 43.9297C114.708 44.3151 114.297 44.6172 113.812 44.8359C113.328 45.0495 112.779 45.1562 112.164 45.1562C111.544 45.1562 110.99 45.0495 110.5 44.8359C110.016 44.6172 109.604 44.3151 109.266 43.9297C108.927 43.5391 108.669 43.0833 108.492 42.5625C108.315 42.0417 108.227 41.4766 108.227 40.8672ZM110.109 40.6875V40.8672C110.109 41.2474 110.148 41.6068 110.227 41.9453C110.305 42.2839 110.427 42.5807 110.594 42.8359C110.76 43.0911 110.974 43.2917 111.234 43.4375C111.495 43.5833 111.805 43.6562 112.164 43.6562C112.513 43.6562 112.815 43.5833 113.07 43.4375C113.331 43.2917 113.544 43.0911 113.711 42.8359C113.878 42.5807 114 42.2839 114.078 41.9453C114.161 41.6068 114.203 41.2474 114.203 40.8672V40.6875C114.203 40.3125 114.161 39.9583 114.078 39.625C114 39.2865 113.875 38.987 113.703 38.7266C113.536 38.4661 113.323 38.263 113.062 38.1172C112.807 37.9661 112.503 37.8906 112.148 37.8906C111.794 37.8906 111.487 37.9661 111.227 38.1172C110.971 38.263 110.76 38.4661 110.594 38.7266C110.427 38.987 110.305 39.2865 110.227 39.625C110.148 39.9583 110.109 40.3125 110.109 40.6875ZM125.441 45H123.011L123.027 43.4453H125.441C126.144 43.4453 126.732 43.2917 127.206 42.9844C127.685 42.6771 128.045 42.237 128.284 41.6641C128.529 41.0911 128.652 40.4089 128.652 39.6172V39C128.652 38.3854 128.581 37.8411 128.441 37.3672C128.305 36.8932 128.102 36.4948 127.831 36.1719C127.566 35.849 127.237 35.6042 126.847 35.4375C126.461 35.2708 126.016 35.1875 125.511 35.1875H122.964V33.625H125.511C126.266 33.625 126.956 33.7526 127.581 34.0078C128.206 34.2578 128.745 34.6198 129.198 35.0938C129.657 35.5677 130.008 36.1354 130.253 36.7969C130.498 37.4583 130.62 38.1979 130.62 39.0156V39.6172C130.62 40.4349 130.498 41.1745 130.253 41.8359C130.008 42.4974 129.657 43.0651 129.198 43.5391C128.74 44.0078 128.193 44.3698 127.558 44.625C126.928 44.875 126.222 45 125.441 45ZM124.097 33.625V45H122.136V33.625H124.097ZM137.317 43.3047V39.2734C137.317 38.9714 137.262 38.7109 137.153 38.4922C137.044 38.2734 136.877 38.1042 136.653 37.9844C136.434 37.8646 136.158 37.8047 135.825 37.8047C135.518 37.8047 135.252 37.8568 135.028 37.9609C134.804 38.0651 134.63 38.2057 134.505 38.3828C134.38 38.5599 134.317 38.7604 134.317 38.9844H132.442C132.442 38.651 132.523 38.3281 132.684 38.0156C132.846 37.7031 133.08 37.4245 133.387 37.1797C133.695 36.9349 134.062 36.7422 134.489 36.6016C134.916 36.4609 135.395 36.3906 135.927 36.3906C136.562 36.3906 137.124 36.4974 137.614 36.7109C138.109 36.9245 138.497 37.2474 138.778 37.6797C139.065 38.1068 139.208 38.6432 139.208 39.2891V43.0469C139.208 43.4323 139.234 43.7786 139.286 44.0859C139.343 44.388 139.424 44.651 139.528 44.875V45H137.598C137.51 44.7969 137.44 44.5391 137.387 44.2266C137.341 43.9089 137.317 43.6016 137.317 43.3047ZM137.591 39.8594L137.606 41.0234H136.255C135.906 41.0234 135.598 41.0573 135.333 41.125C135.067 41.1875 134.846 41.2812 134.669 41.4062C134.492 41.5312 134.359 41.6823 134.27 41.8594C134.182 42.0365 134.137 42.237 134.137 42.4609C134.137 42.6849 134.19 42.8906 134.294 43.0781C134.398 43.2604 134.549 43.4036 134.747 43.5078C134.95 43.612 135.195 43.6641 135.481 43.6641C135.867 43.6641 136.203 43.5859 136.489 43.4297C136.781 43.2682 137.01 43.0729 137.177 42.8438C137.343 42.6094 137.432 42.388 137.442 42.1797L138.052 43.0156C137.989 43.2292 137.882 43.4583 137.731 43.7031C137.58 43.9479 137.382 44.1823 137.137 44.4062C136.898 44.625 136.609 44.8047 136.27 44.9453C135.937 45.0859 135.552 45.1562 135.114 45.1562C134.562 45.1562 134.07 45.0469 133.637 44.8281C133.205 44.6042 132.867 44.3047 132.622 43.9297C132.377 43.5495 132.255 43.1198 132.255 42.6406C132.255 42.1927 132.338 41.7969 132.505 41.4531C132.677 41.1042 132.927 40.8125 133.255 40.5781C133.588 40.3438 133.994 40.1667 134.473 40.0469C134.953 39.9219 135.499 39.8594 136.114 39.8594H137.591ZM145.202 36.5469V37.9219H140.436V36.5469H145.202ZM141.811 34.4766H143.694V42.6641C143.694 42.9245 143.73 43.125 143.803 43.2656C143.881 43.401 143.988 43.4922 144.123 43.5391C144.259 43.5859 144.418 43.6094 144.6 43.6094C144.73 43.6094 144.855 43.6016 144.975 43.5859C145.095 43.5703 145.191 43.5547 145.264 43.5391L145.272 44.9766C145.116 45.0234 144.933 45.0651 144.725 45.1016C144.522 45.138 144.287 45.1562 144.022 45.1562C143.59 45.1562 143.207 45.0807 142.873 44.9297C142.54 44.7734 142.28 44.5208 142.092 44.1719C141.905 43.8229 141.811 43.3594 141.811 42.7812V34.4766ZM151.57 43.3047V39.2734C151.57 38.9714 151.516 38.7109 151.406 38.4922C151.297 38.2734 151.13 38.1042 150.906 37.9844C150.688 37.8646 150.411 37.8047 150.078 37.8047C149.771 37.8047 149.505 37.8568 149.281 37.9609C149.057 38.0651 148.883 38.2057 148.758 38.3828C148.633 38.5599 148.57 38.7604 148.57 38.9844H146.695C146.695 38.651 146.776 38.3281 146.938 38.0156C147.099 37.7031 147.333 37.4245 147.641 37.1797C147.948 36.9349 148.315 36.7422 148.742 36.6016C149.169 36.4609 149.648 36.3906 150.18 36.3906C150.815 36.3906 151.378 36.4974 151.867 36.7109C152.362 36.9245 152.75 37.2474 153.031 37.6797C153.318 38.1068 153.461 38.6432 153.461 39.2891V43.0469C153.461 43.4323 153.487 43.7786 153.539 44.0859C153.596 44.388 153.677 44.651 153.781 44.875V45H151.852C151.763 44.7969 151.693 44.5391 151.641 44.2266C151.594 43.9089 151.57 43.6016 151.57 43.3047ZM151.844 39.8594L151.859 41.0234H150.508C150.159 41.0234 149.852 41.0573 149.586 41.125C149.32 41.1875 149.099 41.2812 148.922 41.4062C148.745 41.5312 148.612 41.6823 148.523 41.8594C148.435 42.0365 148.391 42.237 148.391 42.4609C148.391 42.6849 148.443 42.8906 148.547 43.0781C148.651 43.2604 148.802 43.4036 149 43.5078C149.203 43.612 149.448 43.6641 149.734 43.6641C150.12 43.6641 150.456 43.5859 150.742 43.4297C151.034 43.2682 151.263 43.0729 151.43 42.8438C151.596 42.6094 151.685 42.388 151.695 42.1797L152.305 43.0156C152.242 43.2292 152.135 43.4583 151.984 43.7031C151.833 43.9479 151.635 44.1823 151.391 44.4062C151.151 44.625 150.862 44.8047 150.523 44.9453C150.19 45.0859 149.805 45.1562 149.367 45.1562C148.815 45.1562 148.323 45.0469 147.891 44.8281C147.458 44.6042 147.12 44.3047 146.875 43.9297C146.63 43.5495 146.508 43.1198 146.508 42.6406C146.508 42.1927 146.591 41.7969 146.758 41.4531C146.93 41.1042 147.18 40.8125 147.508 40.5781C147.841 40.3438 148.247 40.1667 148.727 40.0469C149.206 39.9219 149.753 39.8594 150.367 39.8594H151.844ZM161.862 33.625V45H159.902V33.625H161.862ZM166.503 38.6016V40.1562H161.362V38.6016H166.503ZM167.152 33.625V35.1875H161.362V33.625H167.152ZM168.145 40.8672V40.6875C168.145 40.0781 168.234 39.513 168.411 38.9922C168.588 38.4661 168.843 38.0104 169.177 37.625C169.515 37.2344 169.927 36.9323 170.411 36.7188C170.901 36.5 171.453 36.3906 172.067 36.3906C172.687 36.3906 173.239 36.5 173.723 36.7188C174.213 36.9323 174.627 37.2344 174.966 37.625C175.304 38.0104 175.562 38.4661 175.739 38.9922C175.916 39.513 176.005 40.0781 176.005 40.6875V40.8672C176.005 41.4766 175.916 42.0417 175.739 42.5625C175.562 43.0833 175.304 43.5391 174.966 43.9297C174.627 44.3151 174.216 44.6172 173.731 44.8359C173.247 45.0495 172.697 45.1562 172.083 45.1562C171.463 45.1562 170.908 45.0495 170.419 44.8359C169.934 44.6172 169.523 44.3151 169.184 43.9297C168.846 43.5391 168.588 43.0833 168.411 42.5625C168.234 42.0417 168.145 41.4766 168.145 40.8672ZM170.028 40.6875V40.8672C170.028 41.2474 170.067 41.6068 170.145 41.9453C170.223 42.2839 170.346 42.5807 170.512 42.8359C170.679 43.0911 170.893 43.2917 171.153 43.4375C171.414 43.5833 171.723 43.6562 172.083 43.6562C172.432 43.6562 172.734 43.5833 172.989 43.4375C173.249 43.2917 173.463 43.0911 173.63 42.8359C173.796 42.5807 173.919 42.2839 173.997 41.9453C174.08 41.6068 174.122 41.2474 174.122 40.8672V40.6875C174.122 40.3125 174.08 39.9583 173.997 39.625C173.919 39.2865 173.794 38.987 173.622 38.7266C173.455 38.4661 173.242 38.263 172.981 38.1172C172.726 37.9661 172.421 37.8906 172.067 37.8906C171.713 37.8906 171.406 37.9661 171.145 38.1172C170.89 38.263 170.679 38.4661 170.512 38.7266C170.346 38.987 170.223 39.2865 170.145 39.625C170.067 39.9583 170.028 40.3125 170.028 40.6875ZM182.819 43.0078V36.5469H184.709V45H182.928L182.819 43.0078ZM183.084 41.25L183.717 41.2344C183.717 41.8021 183.655 42.3255 183.53 42.8047C183.405 43.2786 183.212 43.6927 182.952 44.0469C182.691 44.3958 182.358 44.6693 181.952 44.8672C181.545 45.0599 181.058 45.1562 180.491 45.1562C180.079 45.1562 179.702 45.0964 179.358 44.9766C179.014 44.8568 178.717 44.6719 178.467 44.4219C178.222 44.1719 178.032 43.8464 177.897 43.4453C177.761 43.0443 177.694 42.5651 177.694 42.0078V36.5469H179.577V42.0234C179.577 42.3307 179.613 42.5885 179.686 42.7969C179.759 43 179.858 43.1641 179.983 43.2891C180.108 43.4141 180.254 43.5026 180.42 43.5547C180.587 43.6068 180.764 43.6328 180.952 43.6328C181.488 43.6328 181.91 43.5286 182.217 43.3203C182.53 43.1068 182.751 42.8203 182.881 42.4609C183.017 42.1016 183.084 41.6979 183.084 41.25ZM188.656 38.3516V45H186.773V36.5469H188.547L188.656 38.3516ZM188.32 40.4609L187.711 40.4531C187.716 39.8542 187.799 39.3047 187.961 38.8047C188.128 38.3047 188.357 37.875 188.648 37.5156C188.945 37.1562 189.299 36.8802 189.711 36.6875C190.122 36.4896 190.581 36.3906 191.086 36.3906C191.492 36.3906 191.859 36.4479 192.188 36.5625C192.521 36.6719 192.805 36.8516 193.039 37.1016C193.279 37.3516 193.461 37.6771 193.586 38.0781C193.711 38.474 193.773 38.9609 193.773 39.5391V45H191.883V39.5312C191.883 39.125 191.823 38.8047 191.703 38.5703C191.589 38.3307 191.419 38.1615 191.195 38.0625C190.977 37.9583 190.703 37.9062 190.375 37.9062C190.052 37.9062 189.763 37.974 189.508 38.1094C189.253 38.2448 189.036 38.4297 188.859 38.6641C188.688 38.8984 188.555 39.1693 188.461 39.4766C188.367 39.7839 188.32 40.112 188.32 40.4609ZM201.002 43.25V33H202.892V45H201.181L201.002 43.25ZM195.502 40.8672V40.7031C195.502 40.0625 195.577 39.4792 195.728 38.9531C195.879 38.4219 196.098 37.9661 196.384 37.5859C196.671 37.2005 197.02 36.9062 197.431 36.7031C197.843 36.4948 198.306 36.3906 198.822 36.3906C199.332 36.3906 199.78 36.4896 200.166 36.6875C200.551 36.8854 200.879 37.1693 201.15 37.5391C201.421 37.9036 201.637 38.3411 201.798 38.8516C201.96 39.3568 202.074 39.9193 202.142 40.5391V41.0625C202.074 41.6667 201.96 42.2188 201.798 42.7188C201.637 43.2188 201.421 43.651 201.15 44.0156C200.879 44.3802 200.548 44.6615 200.158 44.8594C199.772 45.0573 199.322 45.1562 198.806 45.1562C198.296 45.1562 197.835 45.0495 197.423 44.8359C197.017 44.6224 196.671 44.3229 196.384 43.9375C196.098 43.5521 195.879 43.099 195.728 42.5781C195.577 42.0521 195.502 41.4818 195.502 40.8672ZM197.384 40.7031V40.8672C197.384 41.2526 197.418 41.612 197.486 41.9453C197.559 42.2786 197.671 42.5729 197.822 42.8281C197.973 43.0781 198.168 43.276 198.408 43.4219C198.653 43.5625 198.944 43.6328 199.283 43.6328C199.71 43.6328 200.061 43.5391 200.338 43.3516C200.614 43.1641 200.83 42.9115 200.986 42.5938C201.147 42.2708 201.257 41.9115 201.314 41.5156V40.1016C201.283 39.7943 201.218 39.5078 201.119 39.2422C201.025 38.9766 200.897 38.7448 200.736 38.5469C200.574 38.3438 200.374 38.1875 200.134 38.0781C199.9 37.9635 199.621 37.9062 199.298 37.9062C198.955 37.9062 198.663 37.9792 198.423 38.125C198.184 38.2708 197.986 38.4714 197.83 38.7266C197.679 38.9818 197.567 39.2786 197.494 39.6172C197.421 39.9557 197.384 40.3177 197.384 40.7031Z" fill="black" fill-opacity="0.6"/>
    <defs>
        <clipPath id="clip0_13_18159">
            <rect width="47.7912" height="46.6667" fill="white" transform="translate(15.175 15.8655)"/>
        </clipPath>
    </defs>
</svg>
